<svg width="177" height="68" viewBox="0 0 177 68" fill="none" xmlns="http://www.w3.org/2000/svg">
<g clip-path="url(#clip0_109_69)">
<path d="M58.1025 23.5H49.5654V43.9167L58.1025 23.5Z" fill="#4C4C4D"/>
<path d="M64.1094 23.5H72.6353V43.9167L64.1094 23.5Z" fill="#4C4C4D"/>
<path d="M61.1059 31.025L66.5396 43.9168H62.9746L61.3506 39.8124H57.374L61.1059 31.025Z" fill="#4C4C4D"/>
<path d="M86.5634 36.4827L87.5701 39.3691C87.6034 39.4414 87.6535 39.4748 87.7425 39.4748H89.6779C89.7836 39.4748 89.8003 39.4247 89.7836 39.3191L85.7848 28.2125C85.7681 28.1236 85.7514 28.1069 85.6624 28.1069H83.2598C83.1931 28.1069 83.1541 28.1569 83.1541 28.2292C83.1208 28.8132 83.0707 28.9912 82.9984 29.1636L79.4334 39.3024C79.4167 39.4248 79.4557 39.4748 79.5558 39.4748H81.2854C81.3911 39.4748 81.4412 39.4414 81.4801 39.3358L82.4311 36.4827H86.5634ZM82.9817 34.5973C83.5045 33.0178 84.1942 30.9933 84.4722 29.8365H84.4889C84.8338 31.049 85.6457 33.4516 86.0128 34.5973H82.9817Z" fill="#4C4C4D"/>
<path d="M94.9241 39.6467C95.9641 39.6467 97.0709 39.4576 98.1943 38.9738C98.2833 38.9404 98.3 38.9015 98.3 38.818C98.2666 38.5066 98.2277 38.0561 98.2277 37.7113V27.2554C98.2277 27.1887 98.2277 27.1553 98.1443 27.1553H96.2589C96.1866 27.1553 96.1532 27.1887 96.1532 27.2777V30.8204C95.8585 30.7871 95.6527 30.7704 95.408 30.7704C92.3658 30.7704 90.4971 32.7781 90.4971 35.2864C90.4971 38.1951 92.4158 39.6467 94.9241 39.6467ZM96.1532 37.7113C95.8418 37.8114 95.497 37.8503 95.1466 37.8503C93.7673 37.8503 92.6383 37.0717 92.6383 35.1807C92.6383 33.5067 93.8007 32.5167 95.3412 32.5167C95.6527 32.5167 95.9252 32.5501 96.1532 32.6391V37.7113Z" fill="#4C4C4D"/>
<path d="M104.314 30.7712C101.717 30.7712 100.109 32.7623 100.109 35.2205C100.109 37.4174 101.389 39.6476 104.275 39.6476C106.717 39.6476 108.43 37.8512 108.43 35.1649C108.43 32.7957 106.978 30.7712 104.314 30.7712ZM104.208 32.5176C105.677 32.5176 106.299 33.7801 106.299 35.2205C106.299 37.0002 105.382 37.8845 104.314 37.8845C102.996 37.8845 102.217 36.7778 102.217 35.1816C102.217 33.5409 103.046 32.5176 104.208 32.5176Z" fill="#4C4C4D"/>
<path d="M110.379 27.1553C110.307 27.1553 110.257 27.1887 110.257 27.2777V39.1128C110.257 39.1629 110.307 39.2518 110.379 39.2685C111.208 39.5244 112.075 39.6467 112.971 39.6467C115.535 39.6467 118.026 38.0561 118.026 34.8526C118.026 32.5334 116.436 30.7704 113.944 30.7704C113.371 30.7704 112.837 30.8594 112.37 31.0151L112.348 27.2944C112.348 27.172 112.315 27.1553 112.192 27.1553H110.379ZM115.896 35.0639C115.896 36.9827 114.584 37.8837 113.166 37.8837C112.871 37.8837 112.609 37.867 112.37 37.7947V32.7448C112.643 32.6391 112.971 32.5501 113.577 32.5501C114.945 32.5501 115.896 33.4177 115.896 35.0639Z" fill="#4C4C4D"/>
<path d="M125.063 35.6877C125.909 35.6877 126.604 35.671 126.843 35.6154C126.932 35.5987 126.965 35.5653 126.982 35.493C127.032 35.304 127.054 34.9091 127.054 34.4252C127.054 32.779 126.064 30.7712 123.506 30.7712C120.892 30.7712 119.44 32.9013 119.44 35.304C119.44 37.434 120.564 39.6476 123.712 39.6476C124.891 39.6476 125.653 39.4585 126.309 39.147C126.376 39.1137 126.409 39.058 126.409 38.9579V37.5175C126.409 37.434 126.359 37.4174 126.309 37.4507C125.653 37.7288 124.941 37.8679 124.162 37.8679C122.399 37.8679 121.598 36.8946 121.548 35.6877H125.063ZM121.548 34.1972C121.687 33.3518 122.221 32.4342 123.417 32.4342C124.735 32.4342 125.08 33.5409 125.08 34.0415C125.08 34.0582 125.08 34.1305 125.08 34.1805C125.008 34.1972 124.785 34.1972 124.129 34.1972H121.548Z" fill="#4C4C4D"/>
</g>
<defs>
<clipPath id="clip0_109_69">
<rect width="77.5833" height="28" fill="white" transform="translate(49.5654 20)"/>
</clipPath>
</defs>
</svg>
