<svg width="176" height="68" viewBox="0 0 176 68" fill="none" xmlns="http://www.w3.org/2000/svg">
<g clip-path="url(#clip0_109_52)">
<path d="M59.9297 40.6471L65.6781 31.7024H60.6107C60.5677 31.4447 60.5493 31.1625 60.5493 30.8496C60.5493 30.549 60.5677 30.2729 60.6107 30.0214H68.8131L68.9173 30.2975L63.126 39.2606H68.5554C68.5983 39.5428 68.6167 39.8373 68.6167 40.1318C68.6167 40.414 68.5983 40.6839 68.5554 40.9416H60.034L59.9297 40.6471Z" fill="#4C4C4D"/>
<path d="M76.5186 33.7454C76.5186 32.9049 76.3038 32.3283 75.8805 31.997C75.4572 31.6718 74.8376 31.5062 74.0278 31.5062C73.5308 31.5062 73.0646 31.543 72.6351 31.6227C72.1996 31.7025 71.7824 31.8007 71.3652 31.9295C71.0953 31.4632 70.9603 30.8988 70.9603 30.2485C71.445 30.0952 71.9726 29.9725 72.5554 29.8866C73.1382 29.8007 73.6965 29.7577 74.2364 29.7577C75.6535 29.7577 76.7333 30.0829 77.4756 30.727C78.2118 31.3712 78.586 32.408 78.586 33.8252V40.6595C78.0891 40.7699 77.4879 40.8926 76.7762 41.0092C76.0646 41.1319 75.3406 41.1871 74.6045 41.1871C73.9112 41.1871 73.2793 41.1257 72.721 40.9969C72.1628 40.8681 71.6842 40.6656 71.2916 40.3773C70.899 40.0951 70.5984 39.7331 70.3836 39.2914C70.1689 38.8497 70.0646 38.3159 70.0646 37.6963C70.0646 37.089 70.1873 36.5491 70.4388 36.089C70.6842 35.6289 71.0217 35.2424 71.4511 34.9417C71.8744 34.635 72.3652 34.408 72.9235 34.2608C73.4756 34.1135 74.0585 34.0338 74.6719 34.0338C75.1259 34.0338 75.5002 34.046 75.7885 34.0644C76.0768 34.0829 76.3222 34.1135 76.5247 34.1381V33.7454H76.5186ZM76.5186 35.8129C76.3038 35.7822 76.0339 35.7577 75.7087 35.727C75.3836 35.6963 75.1075 35.6841 74.8805 35.6841C73.9971 35.6841 73.3284 35.8497 72.8683 36.1749C72.4082 36.5 72.175 36.9969 72.175 37.6656C72.175 38.089 72.2548 38.4264 72.4082 38.6656C72.5615 38.9049 72.7578 39.089 72.991 39.2178C73.2241 39.3466 73.4818 39.4264 73.7701 39.4509C74.0523 39.4816 74.3223 39.4939 74.5799 39.4939C74.9051 39.4939 75.2425 39.4754 75.5922 39.4386C75.9419 39.4018 76.2486 39.3528 76.5186 39.2791V35.8129Z" fill="#4C4C4D"/>
<path d="M80.8866 30.0219C81.0277 29.9912 81.1749 29.9728 81.3222 29.9605C81.4694 29.9483 81.6228 29.9421 81.7823 29.9421C81.9234 29.9421 82.0706 29.9483 82.2301 29.9605C82.3835 29.9728 82.5369 29.9973 82.678 30.0219C82.6902 30.0526 82.7086 30.1384 82.7332 30.2857C82.7516 30.4329 82.7761 30.5924 82.7945 30.7642C82.8129 30.936 82.8375 31.0955 82.8559 31.255C82.8743 31.4145 82.8866 31.5127 82.8866 31.5556C83.0277 31.3286 83.1994 31.1078 83.3958 30.893C83.5921 30.6783 83.8313 30.4881 84.1074 30.3164C84.3835 30.1446 84.6964 30.0096 85.046 29.9114C85.3957 29.8133 85.7822 29.7642 86.2055 29.7642C86.8436 29.7642 87.4387 29.8685 87.9847 30.0832C88.5307 30.2979 88.9969 30.6231 89.3896 31.0709C89.7822 31.5188 90.0828 32.0893 90.3037 32.7765C90.5245 33.4636 90.635 34.2795 90.635 35.2182C90.635 37.0954 90.1258 38.5617 89.1135 39.6169C88.0951 40.6721 86.6595 41.2058 84.8006 41.2058C84.4878 41.2058 84.1688 41.1874 83.8436 41.1445C83.5185 41.1016 83.2301 41.0463 82.9908 40.9727V45.9788C82.8191 46.0095 82.6412 46.0279 82.4448 46.0402C82.2547 46.0524 82.0767 46.0586 81.9234 46.0586C81.77 46.0586 81.5921 46.0524 81.4019 46.0402C81.2117 46.0279 81.0338 46.0034 80.8804 45.9788V30.0219H80.8866ZM82.997 39.1568C83.2669 39.2549 83.543 39.3286 83.8252 39.3715C84.1074 39.4144 84.4755 39.4329 84.9356 39.4329C85.4448 39.4329 85.9172 39.3531 86.3405 39.1875C86.7638 39.0218 87.1319 38.7703 87.4387 38.4329C87.7454 38.0893 87.9847 37.6599 88.1626 37.1445C88.3405 36.6292 88.4264 36.0096 88.4264 35.304C88.4264 34.1691 88.2178 33.2673 87.8006 32.5985C87.3835 31.9298 86.6963 31.5986 85.7454 31.5986C85.3896 31.5986 85.0522 31.6599 84.7209 31.7887C84.3957 31.9176 84.1013 32.1078 83.8497 32.3654C83.5921 32.6231 83.3896 32.9421 83.2301 33.3347C83.0706 33.7274 82.997 34.1875 82.997 34.7274V39.1568Z" fill="#4C4C4D"/>
<path d="M93.2607 31.6778H91.8742C91.8435 31.5613 91.8251 31.4324 91.8129 31.2852C91.8006 31.138 91.7944 30.9907 91.7944 30.8496C91.7944 30.7085 91.8006 30.5613 91.8129 30.414C91.8251 30.2668 91.8497 30.1318 91.8742 30.0214H95.3282V40.9477C95.1748 40.9784 94.9969 40.9968 94.8067 41.0091C94.6165 41.0213 94.4386 41.0275 94.2852 41.0275C94.1441 41.0275 93.9785 41.0213 93.7822 41.0091C93.592 40.9968 93.4141 40.9723 93.2607 40.9477V31.6778Z" fill="#4C4C4D"/>
<path d="M99.8619 36.0032C99.8925 37.1934 100.199 38.0707 100.788 38.6229C101.377 39.175 102.248 39.4511 103.396 39.4511C104.402 39.4511 105.365 39.2732 106.273 38.9173C106.389 39.132 106.481 39.3897 106.549 39.6965C106.623 40.0032 106.659 40.3038 106.678 40.6044C106.212 40.8007 105.696 40.9541 105.132 41.0523C104.573 41.1504 103.948 41.1995 103.267 41.1995C102.273 41.1995 101.42 41.0584 100.708 40.7823C99.9968 40.5063 99.414 40.1136 98.9539 39.6106C98.4938 39.1075 98.1564 38.5124 97.9416 37.8192C97.7269 37.1321 97.6226 36.3775 97.6226 35.5493C97.6226 34.7394 97.7269 33.9848 97.9294 33.2793C98.1318 32.5738 98.4508 31.9665 98.8741 31.445C99.2974 30.9297 99.8373 30.5125 100.481 30.2119C101.126 29.9051 101.893 29.7517 102.77 29.7517C103.524 29.7517 104.181 29.8806 104.751 30.1383C105.322 30.3959 105.794 30.7456 106.181 31.1935C106.561 31.6413 106.856 32.175 107.052 32.7885C107.248 33.4082 107.353 34.0769 107.353 34.8008C107.353 34.9971 107.346 35.2118 107.328 35.4266C107.316 35.6474 107.297 35.8376 107.285 35.991H99.8619V36.0032ZM105.273 34.4266C105.273 34.0278 105.218 33.6474 105.113 33.2855C105.009 32.9235 104.85 32.6106 104.647 32.3407C104.439 32.0708 104.181 31.856 103.862 31.6904C103.543 31.5247 103.162 31.445 102.721 31.445C101.856 31.445 101.193 31.7088 100.727 32.2303C100.267 32.7579 99.9846 33.4879 99.8864 34.4266H105.273Z" fill="#4C4C4D"/>
<path d="M109.684 30.0214C109.837 29.9907 109.991 29.9723 110.132 29.9601C110.273 29.9478 110.42 29.9417 110.58 29.9417C110.733 29.9417 110.892 29.9478 111.046 29.9601C111.199 29.9723 111.346 29.9969 111.469 30.0214C111.512 30.2361 111.555 30.5122 111.598 30.8619C111.641 31.2116 111.659 31.5061 111.659 31.7453C111.96 31.2607 112.353 30.8435 112.843 30.4877C113.334 30.1318 113.96 29.9539 114.727 29.9539C114.843 29.9539 114.96 29.9601 115.077 29.9662C115.199 29.9723 115.297 29.9846 115.383 29.9969C115.414 30.1257 115.432 30.2607 115.445 30.4018C115.457 30.5429 115.463 30.6901 115.463 30.8496C115.463 31.0214 115.451 31.1993 115.432 31.3834C115.414 31.5674 115.383 31.7453 115.359 31.9171C115.242 31.8864 115.126 31.8742 115.009 31.8742C114.886 31.8742 114.794 31.8742 114.721 31.8742C114.34 31.8742 113.972 31.9294 113.623 32.0337C113.273 32.138 112.96 32.3281 112.684 32.5981C112.408 32.868 112.187 33.2361 112.021 33.7085C111.856 34.1748 111.776 34.7821 111.776 35.5183V40.9477C111.623 40.9784 111.445 40.9968 111.254 41.0091C111.064 41.0213 110.886 41.0275 110.733 41.0275C110.58 41.0275 110.402 41.0213 110.212 41.0091C110.021 40.9968 109.837 40.9723 109.666 40.9477V30.0214H109.684Z" fill="#4C4C4D"/>
<path d="M97.3342 23.5923H95.2729L96.733 22.1321C96.6164 21.9726 96.4876 21.8193 96.3526 21.6782C96.2115 21.5371 96.0643 21.4082 95.8986 21.2978L94.4385 22.7579V20.6966C94.2483 20.6659 94.052 20.6475 93.8496 20.6475H93.8434C93.641 20.6475 93.4447 20.6659 93.2545 20.6966V22.7579L91.7944 21.2978C91.6349 21.4144 91.4815 21.5432 91.3404 21.6782C91.1993 21.8193 91.0766 21.9665 90.96 22.1321L92.4263 23.5923H90.3649C90.3649 23.5923 90.3158 23.9788 90.3158 24.1812C90.3158 24.3837 90.3343 24.58 90.3649 24.7702H92.4263L90.9661 26.2303C91.1931 26.5493 91.4753 26.8315 91.8005 27.0646L93.2606 25.6045V27.6658C93.4508 27.6965 93.6471 27.7149 93.8496 27.7149H93.8557C94.0582 27.7149 94.2545 27.6965 94.4446 27.6658V25.6045L95.9048 27.0646C96.0643 26.9481 96.2176 26.8192 96.3587 26.6843C96.4998 26.5432 96.6287 26.3959 96.7391 26.2303L95.279 24.7702H97.3403C97.371 24.58 97.3894 24.3837 97.3894 24.1812V24.1751C97.3833 23.9788 97.371 23.7824 97.3342 23.5923ZM94.733 24.1873C94.733 24.4511 94.6839 24.7027 94.598 24.9358C94.3649 25.0217 94.1134 25.0708 93.8496 25.0708C93.5858 25.0708 93.3342 25.0217 93.1011 24.9358C93.0152 24.7027 92.9661 24.4511 92.9661 24.1873V24.1812C92.9661 23.9174 93.0152 23.6659 93.1011 23.4327C93.3342 23.3469 93.5858 23.2978 93.8496 23.2978C94.1134 23.2978 94.3649 23.3469 94.598 23.4327C94.6839 23.6659 94.733 23.9174 94.733 24.1873Z" fill="#4C4C4D"/>
</g>
<defs>
<clipPath id="clip0_109_52">
<rect width="56" height="28" fill="white" transform="translate(59.9287 20)"/>
</clipPath>
</defs>
</svg>
