<svg width="177" height="68" viewBox="0 0 177 68" fill="none" xmlns="http://www.w3.org/2000/svg">
<g clip-path="url(#clip0_109_80)">
<path d="M76.8023 40.2851V31.7946H76.9536L83.1338 40.2851H85.0786V27.8168H82.9177V36.2858H82.7664L76.5862 27.8168H74.6414V40.2851H76.8023ZM91.194 40.4776C94.0464 40.4776 95.7968 38.6383 95.7968 35.5587C95.7968 32.5004 94.0464 30.6398 91.194 30.6398C88.3632 30.6398 86.5912 32.5004 86.5912 35.5587C86.6129 38.6383 88.3416 40.4776 91.194 40.4776ZM91.194 38.6811C89.6814 38.6811 88.817 37.5476 88.817 35.5587C88.817 33.5911 89.6814 32.4362 91.194 32.4362C92.7066 32.4362 93.571 33.5911 93.571 35.5587C93.571 37.5476 92.7066 38.6811 91.194 38.6811ZM97.7632 28.5225V30.8964H96.2505V32.6073H97.7632V37.7615C97.7632 39.6007 98.6276 40.3279 100.832 40.3279C101.242 40.3279 101.653 40.2851 101.977 40.2209V38.5528C101.718 38.5742 101.545 38.5956 101.242 38.5956C100.335 38.5956 99.9241 38.1892 99.9241 37.2482V32.6073H101.977V30.8964H99.9241V28.5225H97.7632ZM103.274 40.2851H105.434V30.8323H103.274V40.2851ZM104.354 29.271C105.067 29.271 105.651 28.6936 105.651 27.9878C105.651 27.2607 105.067 26.6833 104.354 26.6833C103.641 26.6833 103.057 27.2607 103.057 27.9878C103.057 28.6936 103.641 29.271 104.354 29.271ZM111.355 40.4776C114.208 40.4776 115.958 38.6383 115.958 35.5587C115.958 32.5004 114.208 30.6398 111.355 30.6398C108.525 30.6398 106.753 32.5004 106.753 35.5587C106.753 38.6383 108.481 40.4776 111.355 40.4776ZM111.355 38.6811C109.843 38.6811 108.978 37.5476 108.978 35.5587C108.978 33.5911 109.843 32.4362 111.355 32.4362C112.846 32.4362 113.732 33.5911 113.732 35.5587C113.711 37.5476 112.846 38.6811 111.355 38.6811ZM117.233 40.2851H119.394V34.7888C119.394 33.3986 120.215 32.5218 121.49 32.5218C122.808 32.5218 123.413 33.2489 123.413 34.6818V40.2851H125.574V34.1685C125.574 31.9016 124.407 30.6398 122.29 30.6398C120.863 30.6398 119.913 31.2814 119.459 32.3507H119.308V30.8323H117.211C117.233 30.8323 117.233 40.2851 117.233 40.2851Z" fill="#4C4C4D"/>
<path fill-rule="evenodd" clip-rule="evenodd" d="M53.9219 27.0187C54.5508 27.5261 54.7783 27.486 55.9559 27.4059L67.0493 26.7383C67.2901 26.7383 67.0894 26.498 67.0091 26.4713L65.1625 25.1494C64.8145 24.8824 64.3328 24.5619 63.4362 24.642L52.7041 25.4298C52.3161 25.4699 52.2358 25.6702 52.3964 25.817L53.9219 27.0187ZM54.591 29.5957V41.2388C54.591 41.8663 54.8987 42.0933 55.608 42.0533L67.7987 41.3456C68.5079 41.3056 68.5882 40.8783 68.5882 40.3709V28.8079C68.5882 28.3005 68.3874 28.0201 67.9592 28.0602L55.2199 28.8079C54.7515 28.848 54.591 29.0883 54.591 29.5957ZM66.6211 30.2232C66.7014 30.5704 66.6211 30.9309 66.2731 30.971L65.6844 31.0911V39.6899C65.1758 39.957 64.7075 40.1172 64.306 40.1172C63.6771 40.1172 63.5165 39.9169 63.0482 39.3294L59.2076 33.3076V39.1291L60.4254 39.3962C60.4254 39.3962 60.4254 40.1039 59.4485 40.1039L56.7454 40.2641C56.6651 40.1039 56.7454 39.7166 57.013 39.6365L57.7223 39.4362V31.7454L56.7454 31.6653C56.6651 31.3181 56.8658 30.8107 57.4145 30.7707L60.3183 30.5704L64.3194 36.659V31.2781L63.3024 31.1579C63.2221 30.7306 63.5433 30.4102 63.9314 30.3701L66.6211 30.2232ZM51.8076 24.3616L62.9813 23.5472C64.3462 23.427 64.7075 23.5071 65.5639 24.1347L69.1234 26.6315C69.7122 27.0588 69.913 27.179 69.913 27.6463V41.359C69.913 42.2135 69.6052 42.7209 68.5079 42.801L55.5411 43.5888C54.7114 43.6288 54.3233 43.5087 53.8951 42.9612L51.2589 39.5564C50.7906 38.9289 50.5898 38.4615 50.5898 37.9141V25.7236C50.5898 25.0159 50.911 24.4418 51.8076 24.3616Z" fill="#4C4C4D"/>
</g>
<defs>
<clipPath id="clip0_109_80">
<rect width="75.25" height="28" fill="white" transform="translate(50.5898 20)"/>
</clipPath>
</defs>
</svg>
