<svg width="176" height="68" viewBox="0 0 176 68" fill="none" xmlns="http://www.w3.org/2000/svg">
<g clip-path="url(#clip0_109_84)">
<path d="M64.6001 42.2039C63.626 42.3749 62.6348 42.4262 61.6094 42.5628L58.4819 33.4027V42.9559C57.5078 43.0584 56.6192 43.1952 55.6963 43.3319V25.8319H58.294L61.8486 35.7612V25.8319H64.6001V42.2039ZM69.9834 32.2406C71.043 32.2406 72.6666 32.1893 73.6406 32.1893V34.9236C72.4272 34.9236 71.0088 34.9236 69.9834 34.9749V39.0423C71.5899 38.9398 73.1964 38.803 74.8198 38.7517V41.3834L67.249 41.9817V25.8319H74.8198V28.5663H69.9834V32.2406ZM84.9882 28.5663H82.1514V41.1444C81.2285 41.1444 80.3056 41.1444 79.4171 41.1785V28.5663H76.5802V25.8319H84.9884L84.9882 28.5663ZM89.4316 32.0526H93.1743V34.787H89.4316V40.9906H86.7483V25.8319H94.3877V28.5663H89.4316V32.0526ZM98.831 38.598C100.386 38.6321 101.958 38.7519 103.479 38.8372V41.5374C101.036 41.3835 98.5918 41.2299 96.0967 41.1785V25.8319H98.831V38.598ZM105.787 41.7254C106.658 41.7768 107.581 41.8281 108.47 41.9304V25.8319H105.787V41.7254ZM120.45 25.8319L116.98 34.1547L120.45 43.3319C119.424 43.1952 118.399 43.0072 117.373 42.8362L115.408 37.7778L113.409 42.4262C112.417 42.2552 111.46 42.2039 110.469 42.0672L113.99 34.052L110.811 25.8319H113.75L115.545 30.4291L117.459 25.8319H120.45V25.8319Z" fill="#4C4C4D"/>
</g>
<defs>
<clipPath id="clip0_109_84">
<rect width="64.75" height="28" fill="white" transform="translate(55.6963 20)"/>
</clipPath>
</defs>
</svg>
