<svg width="177" height="68" viewBox="0 0 177 68" fill="none" xmlns="http://www.w3.org/2000/svg">
<g clip-path="url(#clip0_109_64)">
<path fill-rule="evenodd" clip-rule="evenodd" d="M96.0441 42.0535C92.332 44.7896 86.9515 46.2494 82.3191 46.2494C75.8237 46.2494 69.9761 43.847 65.5522 39.8513C65.2046 39.5371 65.516 39.1089 65.9331 39.3535C70.7074 42.1313 76.6106 43.8025 82.7084 43.8025C86.8209 43.8025 91.3449 42.9516 95.5046 41.1859C96.133 40.919 96.6586 41.5975 96.0441 42.0535Z" fill="#4C4C4D"/>
<path fill-rule="evenodd" clip-rule="evenodd" d="M97.5873 40.2878C97.1146 39.6817 94.4508 40.0014 93.2552 40.1433C92.8909 40.1877 92.8353 39.8708 93.1634 39.6427C95.285 38.1496 98.7663 38.5806 99.1722 39.0811C99.5782 39.5844 99.0666 43.074 97.0729 44.7396C96.767 44.9954 96.4751 44.8591 96.6113 44.5199C97.059 43.4021 98.0628 40.8968 97.5873 40.2878Z" fill="#4C4C4D"/>
<path fill-rule="evenodd" clip-rule="evenodd" d="M93.3394 29.1021V27.6507C93.3394 27.431 93.5063 27.2836 93.7065 27.2836H100.205C100.413 27.2836 100.58 27.4338 100.58 27.6507V28.8936C100.577 29.1021 100.402 29.3746 100.091 29.8056L96.7234 34.6132C97.9747 34.5827 99.2954 34.769 100.43 35.4085C100.686 35.5531 100.755 35.7644 100.775 35.9729V37.5217C100.775 37.7331 100.541 37.9805 100.296 37.8526C98.2972 36.8043 95.6418 36.6903 93.4312 37.8637C93.206 37.9861 92.9696 37.7414 92.9696 37.5301V36.0591C92.9696 35.8228 92.9724 35.4196 93.2087 35.0609L97.1099 29.4664H93.7148C93.5063 29.4664 93.3394 29.319 93.3394 29.1021Z" fill="#4C4C4D"/>
<path fill-rule="evenodd" clip-rule="evenodd" d="M69.6349 38.1585H67.6579C67.4689 38.1446 67.3187 38.0028 67.3048 37.8221V27.6757C67.3048 27.4727 67.4744 27.3114 67.6857 27.3114H69.5293C69.7211 27.3198 69.8741 27.4672 69.888 27.6507V28.977H69.9241C70.4052 27.6952 71.3088 27.0973 72.5267 27.0973C73.7641 27.0973 74.5371 27.6952 75.0932 28.977C75.5715 27.6952 76.6587 27.0973 77.8238 27.0973C78.6524 27.0973 79.5588 27.4394 80.1122 28.2068C80.7378 29.0604 80.6099 30.3006 80.6099 31.3878L80.6071 37.7915C80.6071 37.9944 80.4375 38.1585 80.2262 38.1585H78.252C78.0545 38.1446 77.8961 37.9861 77.8961 37.7915V32.4138C77.8961 31.9856 77.935 30.9179 77.8404 30.5119C77.6931 29.8307 77.251 29.6388 76.6782 29.6388C76.1999 29.6388 75.6994 29.9586 75.4964 30.4702C75.2934 30.9818 75.3129 31.8382 75.3129 32.4138V37.7915C75.3129 37.9944 75.1433 38.1585 74.932 38.1585H72.9577C72.7575 38.1446 72.6018 37.9861 72.6018 37.7915L72.599 32.4138C72.599 31.2821 72.7853 29.6165 71.3811 29.6165C69.9603 29.6165 70.0159 31.2404 70.0159 32.4138V37.7915C70.0159 37.9944 69.8463 38.1585 69.6349 38.1585Z" fill="#4C4C4D"/>
<path fill-rule="evenodd" clip-rule="evenodd" d="M106.175 27.0973C109.108 27.0973 110.696 29.6165 110.696 32.8198C110.696 35.9146 108.941 38.3698 106.175 38.3698C103.294 38.3698 101.726 35.8506 101.726 32.7113C101.726 29.5526 103.313 27.0973 106.175 27.0973ZM106.191 29.1689C104.734 29.1689 104.642 31.1542 104.642 32.3916C104.642 33.6317 104.623 36.2788 106.175 36.2788C107.707 36.2788 107.779 34.1433 107.779 32.842C107.779 31.9856 107.743 30.9624 107.484 30.1504C107.262 29.4442 106.82 29.1689 106.191 29.1689Z" fill="#4C4C4D"/>
<path fill-rule="evenodd" clip-rule="evenodd" d="M114.5 38.1585H112.531C112.334 38.1446 112.175 37.9861 112.175 37.7915L112.172 27.6423C112.189 27.456 112.353 27.3114 112.553 27.3114H114.386C114.558 27.3198 114.7 27.4366 114.739 27.5951V29.1466H114.775C115.328 27.7591 116.104 27.0973 117.469 27.0973C118.356 27.0973 119.221 27.4171 119.777 28.293C120.294 29.1049 120.294 30.4702 120.294 31.4517V37.8387C120.272 38.0167 120.108 38.1585 119.913 38.1585H117.931C117.75 38.1446 117.6 38.0111 117.581 37.8387V32.3276C117.581 31.2182 117.708 29.5943 116.343 29.5943C115.862 29.5943 115.42 29.9169 115.2 30.4062C114.922 31.0263 114.886 31.6436 114.886 32.3276V37.7915C114.883 37.9944 114.711 38.1585 114.5 38.1585Z" fill="#4C4C4D"/>
<path fill-rule="evenodd" clip-rule="evenodd" d="M88.1592 33.3119C88.1592 34.0821 88.1787 34.7245 87.7894 35.4085C87.4752 35.9646 86.9747 36.3066 86.4214 36.3066C85.6623 36.3066 85.2174 35.7283 85.2174 34.8746C85.2174 33.1896 86.7272 32.8837 88.1592 32.8837V33.3119ZM90.1529 38.1307C90.0222 38.2475 89.8331 38.2558 89.6858 38.178C89.0295 37.633 88.91 37.3799 88.5513 36.86C87.4669 37.9666 86.6966 38.2975 85.2924 38.2975C83.6269 38.2975 82.3339 37.2715 82.3339 35.2166C82.3339 33.6122 83.2014 32.5195 84.4416 31.9856C85.5149 31.5129 87.0136 31.4295 88.1592 31.2988V31.043C88.1592 30.5731 88.1954 30.0169 87.9173 29.611C87.6782 29.2467 87.2166 29.0966 86.8079 29.0966C86.0543 29.0966 85.3842 29.4831 85.2201 30.2839C85.1868 30.4618 85.0561 30.637 84.8754 30.6453L82.9595 30.4396C82.7983 30.4034 82.6175 30.2727 82.6648 30.0253C83.1041 27.7007 85.2062 27 87.0859 27C88.048 27 89.3048 27.2558 90.0639 27.9843C91.026 28.8825 90.9342 30.0809 90.9342 31.385V34.4659C90.9342 35.3918 91.318 35.7978 91.6794 36.2983C91.8046 36.4762 91.8324 36.6903 91.6711 36.8238C91.2679 37.1603 90.5505 37.7859 90.1557 38.1362L90.1529 38.1307Z" fill="#4C4C4D"/>
<path fill-rule="evenodd" clip-rule="evenodd" d="M62.2413 33.3119C62.2413 34.0821 62.2608 34.7245 61.8715 35.4085C61.5573 35.9646 61.0596 36.3066 60.5035 36.3066C59.7444 36.3066 59.3023 35.7282 59.3023 34.8746C59.3023 33.1896 60.8121 32.8837 62.2413 32.8837V33.3119ZM64.235 38.1307C64.1043 38.2475 63.9152 38.2558 63.7679 38.1779C63.1117 37.633 62.9949 37.3799 62.6334 36.8599C61.549 37.9666 60.7815 38.2975 59.3746 38.2975C57.7118 38.2975 56.416 37.2715 56.416 35.2166C56.416 33.6122 57.2863 32.5195 58.5237 31.9856C59.597 31.5129 61.0957 31.4295 62.2413 31.2988V31.043C62.2413 30.573 62.2775 30.0169 62.0022 29.611C61.7603 29.2467 61.2987 29.0966 60.8928 29.0966C60.1392 29.0966 59.4663 29.4831 59.3023 30.2839C59.2689 30.4618 59.1382 30.637 58.9602 30.6453L57.0416 30.4396C56.8804 30.4034 56.7024 30.2727 56.7469 30.0253C57.189 27.7007 59.2884 27 61.168 27C62.1301 27 63.3869 27.2558 64.146 27.9843C65.1081 28.8825 65.0164 30.0809 65.0164 31.385V34.4659C65.0164 35.3918 65.4001 35.7978 65.7616 36.2983C65.8895 36.4762 65.9173 36.6903 65.756 36.8238C65.3528 37.1603 64.6354 37.7859 64.2406 38.1362L64.235 38.1307Z" fill="#4C4C4D"/>
</g>
<defs>
<clipPath id="clip0_109_64">
<rect width="64.1666" height="28" fill="white" transform="translate(56.417 20)"/>
</clipPath>
</defs>
</svg>
