<svg width="177" height="68" viewBox="0 0 177 68" fill="none" xmlns="http://www.w3.org/2000/svg">
<g clip-path="url(#clip0_109_56)">
<path d="M60.2473 21.7959C53.4818 21.7959 47.9971 27.2805 47.9971 34.046C47.9971 40.8118 53.4818 46.2959 60.2473 46.2959C67.0135 46.2959 72.4977 40.8118 72.4977 34.046C72.4977 27.281 67.0135 21.7965 60.2472 21.7965L60.2473 21.7959ZM65.8652 39.4641C65.6458 39.8239 65.1747 39.938 64.8149 39.7171C61.9386 37.9603 58.3178 37.5624 54.0537 38.5366C53.6427 38.6302 53.2331 38.3728 53.1395 37.9617C53.0455 37.5507 53.3019 37.1411 53.7138 37.0474C58.3803 35.9813 62.383 36.4404 65.6121 38.4137C65.972 38.6346 66.0861 39.1042 65.8652 39.4641ZM67.3646 36.1285C67.0881 36.5779 66.5 36.7198 66.051 36.4433C62.7581 34.4193 57.7387 33.8332 53.8439 35.0154C53.3388 35.168 52.8053 34.8833 52.652 34.3791C52.4998 33.874 52.7846 33.3415 53.2889 33.1879C57.7378 31.838 63.2686 32.4919 67.0501 34.8156C67.4992 35.0921 67.6411 35.6801 67.3646 36.1286V36.1285ZM67.4933 32.6551C63.5451 30.3101 57.0311 30.0944 53.2615 31.2385C52.6562 31.4221 52.0161 31.0804 51.8326 30.4751C51.6492 29.8695 51.9906 29.2298 52.5964 29.0457C56.9236 27.7321 64.1171 27.9859 68.6627 30.6844C69.2083 31.0075 69.3868 31.7107 69.0635 32.2545C68.7417 32.7989 68.0366 32.9784 67.4939 32.6551H67.4933ZM81.3259 33.1045C79.2106 32.6001 78.8347 32.2461 78.8347 31.5023C78.8347 30.7995 79.4959 30.3266 80.4804 30.3266C81.4341 30.3266 82.3791 30.6857 83.3709 31.425C83.4002 31.4474 83.4382 31.4563 83.4748 31.4505C83.5128 31.4449 83.545 31.4246 83.567 31.394L84.5997 29.9382C84.6421 29.8782 84.6304 29.7956 84.5734 29.7498C83.3929 28.8029 82.0646 28.3426 80.5111 28.3426C78.2276 28.3426 76.6317 29.7131 76.6317 31.674C76.6317 33.7768 78.0082 34.5214 80.3867 35.0962C82.4099 35.5624 82.7522 35.953 82.7522 36.651C82.7522 37.4249 82.0617 37.9061 80.9499 37.9061C79.7153 37.9061 78.7074 37.4892 77.581 36.515C77.5532 36.4901 77.5152 36.4799 77.4801 36.4813C77.4421 36.4843 77.4084 36.5018 77.385 36.5296L76.2264 37.9076C76.1782 37.9661 76.184 38.051 76.2396 38.1007C77.5503 39.271 79.1624 39.8883 80.9031 39.8883C83.3636 39.8883 84.9537 38.5439 84.9537 36.4623C84.9581 34.7059 83.9063 33.7331 81.3303 33.1064L81.3259 33.1045ZM90.5213 31.0185C89.4549 31.0185 88.5801 31.4386 87.8575 32.2995V31.3305C87.8575 31.254 87.796 31.1917 87.72 31.1917H85.8256C85.7495 31.1917 85.6881 31.254 85.6881 31.3305V42.0972C85.6881 42.1732 85.7495 42.2361 85.8256 42.2361H87.72C87.796 42.2361 87.8575 42.1732 87.8575 42.0972V38.699C88.5801 39.5079 89.4549 39.9044 90.5213 39.9044C92.5034 39.9044 94.5104 38.3786 94.5104 35.4619C94.5134 32.5445 92.5064 31.0184 90.5227 31.0184L90.5213 31.0185ZM92.3074 35.4619C92.3074 36.9465 91.3931 37.9837 90.0824 37.9837C88.7878 37.9837 87.8106 36.8997 87.8106 35.4619C87.8106 34.0239 88.7878 32.9402 90.0824 32.9402C91.3712 32.9401 92.3074 34.0004 92.3074 35.4617V35.4619ZM99.6523 31.0185C97.0997 31.0185 95.1 32.984 95.1 35.4936C95.1 37.9763 97.0865 39.9205 99.6216 39.9205C102.183 39.9205 104.189 37.9617 104.189 35.4619C104.189 32.9705 102.196 31.0188 99.6523 31.0188V31.0185ZM99.6523 37.9983C98.2948 37.9983 97.2708 36.907 97.2708 35.4611C97.2708 34.0087 98.2597 32.9547 99.6216 32.9547C100.988 32.9547 102.018 34.0456 102.018 35.4929C102.018 36.945 101.023 37.9983 99.6523 37.9983ZM109.639 31.1917H107.555V29.061C107.555 28.9846 107.493 28.9223 107.417 28.9223H105.523C105.447 28.9223 105.384 28.9846 105.384 29.061V31.1917H104.474C104.398 31.1917 104.336 31.254 104.336 31.3305V32.9582C104.336 33.0346 104.398 33.0971 104.474 33.0971H105.384V37.3093C105.384 39.0106 106.231 39.8736 107.903 39.8736C108.581 39.8736 109.145 39.7332 109.676 39.4319C109.72 39.4085 109.746 39.3617 109.746 39.3119V37.7613C109.746 37.7145 109.721 37.6692 109.68 37.6443C109.639 37.618 109.588 37.6165 109.545 37.6384C109.181 37.8213 108.829 37.9061 108.434 37.9061C107.827 37.9061 107.555 37.6297 107.555 37.0123V33.0978H109.639C109.715 33.0978 109.777 33.0355 109.777 32.959V31.3314C109.78 31.2549 109.718 31.1926 109.641 31.1926L109.639 31.1917ZM116.901 31.2001V30.9384C116.901 30.1685 117.196 29.8251 117.857 29.8251C118.252 29.8251 118.57 29.9035 118.925 30.022C118.969 30.0358 119.014 30.0289 119.05 30.0027C119.086 29.9765 119.107 29.9346 119.107 29.8901V28.2941C119.107 28.2331 119.069 28.1792 119.009 28.1612C118.634 28.0495 118.154 27.935 117.435 27.935C115.686 27.935 114.76 28.9201 114.76 30.7827V31.1835H113.851C113.775 31.1835 113.712 31.2458 113.712 31.3222V32.9582C113.712 33.0346 113.775 33.0971 113.851 33.0971H114.76V39.5928C114.76 39.6703 114.823 39.7318 114.899 39.7318H116.792C116.87 39.7318 116.931 39.6703 116.931 39.5928V33.0975H118.7L121.409 39.5928C121.102 40.2745 120.799 40.4105 120.387 40.4105C120.053 40.4105 119.7 40.311 119.342 40.1136C119.308 40.096 119.267 40.0931 119.232 40.1033C119.196 40.1165 119.165 40.1428 119.15 40.1779L118.508 41.5866C118.478 41.6539 118.504 41.7314 118.568 41.7666C119.238 42.1293 119.842 42.2844 120.59 42.2844C121.988 42.2844 122.762 41.632 123.442 39.8795L126.728 31.3896C126.745 31.3469 126.74 31.2987 126.713 31.2608C126.688 31.2232 126.646 31.2005 126.601 31.2005H124.629C124.569 31.2005 124.516 31.2381 124.497 31.2935L122.477 37.0621L120.265 31.2897C120.245 31.236 120.193 31.2005 120.136 31.2005H116.901V31.2001ZM112.691 31.1917H110.796C110.72 31.1917 110.657 31.254 110.657 31.3305V39.5928C110.657 39.6703 110.72 39.7318 110.796 39.7318H112.691C112.767 39.7318 112.83 39.6703 112.83 39.5928V31.3311C112.83 31.2546 112.768 31.1923 112.691 31.1923V31.1917ZM111.754 27.4295C111.004 27.4295 110.395 28.0368 110.395 28.7871C110.395 29.5378 111.004 30.1459 111.754 30.1459C112.505 30.1459 113.112 29.5378 113.112 28.7871C113.112 28.037 112.503 27.4295 111.754 27.4295ZM128.346 33.8484C127.597 33.8484 127.013 33.2464 127.013 32.5154C127.013 31.7845 127.604 31.1756 128.353 31.1756C129.102 31.1756 129.686 31.7774 129.686 32.5078C129.686 33.2388 129.095 33.8484 128.346 33.8484ZM128.353 31.3082C127.67 31.3082 127.154 31.8509 127.154 32.5154C127.154 33.1797 127.667 33.7151 128.346 33.7151C129.029 33.7151 129.545 33.1728 129.545 32.5078C129.545 31.8436 129.032 31.3082 128.353 31.3082ZM128.649 32.6449L129.026 33.1727H128.707L128.368 32.6885H128.077V33.1727H127.81V31.7736H128.434C128.76 31.7736 128.973 31.94 128.973 32.2199C128.975 32.4493 128.842 32.5895 128.65 32.6449H128.649ZM128.423 32.0137H128.077V32.4562H128.423C128.596 32.4562 128.7 32.3715 128.7 32.2347C128.7 32.0908 128.596 32.0137 128.423 32.0137Z" fill="#4C4C4D"/>
</g>
<defs>
<clipPath id="clip0_109_56">
<rect width="81.6667" height="28" fill="white" transform="translate(47.9531 20)"/>
</clipPath>
</defs>
</svg>
