<svg width="177" height="68" viewBox="0 0 177 68" fill="none" xmlns="http://www.w3.org/2000/svg">
<g clip-path="url(#clip0_109_60)">
<path fill-rule="evenodd" clip-rule="evenodd" d="M106.555 32.0165C106.774 32.3932 106.845 32.8217 106.869 33.3034L106.9 33.9454V38.4352L106.931 39.078C106.995 40.1277 107.769 40.9038 108.827 40.9698L109.466 41.0015V33.9454L109.498 33.3034C109.524 32.827 109.595 32.3905 109.816 32.0111C110.042 31.6221 110.366 31.2993 110.757 31.0752C111.147 30.8511 111.589 30.7335 112.039 30.7343C112.489 30.7352 112.93 30.8543 113.319 31.0798C113.709 31.3054 114.032 31.6294 114.256 32.0192C114.475 32.3959 114.543 32.8324 114.569 33.3034L114.601 33.9434V38.4352L114.632 39.078C114.698 40.133 115.466 40.9092 116.527 40.9698L117.167 41.0015V33.3034C117.167 31.9421 116.626 30.6366 115.664 29.6739C114.701 28.7112 113.396 28.17 112.035 28.1695C111.306 28.1687 110.586 28.3235 109.922 28.6233C109.258 28.9232 108.666 29.3613 108.185 29.9084C107.703 29.3615 107.111 28.9235 106.447 28.6236C105.783 28.3236 105.063 28.1686 104.334 28.1688C103.268 28.1688 102.279 28.4922 101.46 29.0507C100.96 28.4929 99.8417 28.1688 99.1996 28.1688V41.0015L99.8417 40.9698C100.916 40.8991 101.692 40.1438 101.734 39.078L101.768 38.4352V33.9454L101.8 33.3034C101.827 32.819 101.894 32.3932 102.113 32.0138C102.339 31.625 102.663 31.3023 103.053 31.0779C103.443 30.8535 103.884 30.7353 104.334 30.7351C104.784 30.7352 105.226 30.8536 105.616 31.0785C106.006 31.3035 106.33 31.6269 106.555 32.0165ZM62.6258 40.9705L63.2679 41.0015H72.8922L72.8606 40.3614C72.7736 39.3064 72.0265 38.5356 70.968 38.4669L70.326 38.4352H64.552L72.2502 30.7344L72.2185 30.095C72.1686 29.0292 71.3898 28.2591 70.326 28.2005L69.6839 28.1715L60.0596 28.1688L60.0912 28.8109C60.1755 29.8559 60.9334 30.6428 61.9831 30.7034L62.6258 30.7351H68.3998L60.7016 38.4359L60.7333 39.078C60.7966 40.1357 61.56 40.9018 62.6258 40.9698V40.9705ZM96.6805 30.0472C97.2764 30.643 97.7492 31.3504 98.0717 32.1289C98.3942 32.9074 98.5602 33.7418 98.5602 34.5845C98.5602 35.4272 98.3942 36.2616 98.0717 37.0401C97.7492 37.8186 97.2764 38.526 96.6805 39.1218C95.4765 40.3248 93.8442 41.0005 92.1422 41.0005C90.4402 41.0005 88.8079 40.3248 87.6039 39.1218C85.0983 36.6161 85.0983 32.5528 87.6039 30.0472C88.1993 29.4516 88.9062 28.9791 89.6842 28.6567C90.4622 28.3343 91.296 28.1683 92.1382 28.1682C92.9817 28.1676 93.8171 28.3333 94.5965 28.6558C95.3759 28.9784 96.0841 29.4514 96.6805 30.0479V30.0472ZM94.8648 31.8643C95.5865 32.5865 95.9919 33.5658 95.9919 34.5868C95.9919 35.6079 95.5865 36.5872 94.8648 37.3094C94.1425 38.0311 93.1633 38.4365 92.1422 38.4365C91.1212 38.4365 90.1419 38.0311 89.4197 37.3094C88.6979 36.5872 88.2925 35.6079 88.2925 34.5868C88.2925 33.5658 88.6979 32.5865 89.4197 31.8643C90.1419 31.1426 91.1212 30.7372 92.1422 30.7372C93.1633 30.7372 94.1425 31.1426 94.8648 31.8643ZM78.6715 28.1682C79.5137 28.1684 80.3476 28.3345 81.1256 28.657C81.9036 28.9795 82.6105 29.4522 83.2058 30.0479C85.7121 32.5528 85.7121 36.6168 83.2058 39.1218C82.0018 40.3248 80.3695 41.0005 78.6675 41.0005C76.9655 41.0005 75.3332 40.3248 74.1292 39.1218C71.6236 36.6161 71.6236 32.5528 74.1292 30.0472C74.7246 29.4516 75.4315 28.9791 76.2094 28.6567C76.9874 28.3343 77.8213 28.1683 78.6635 28.1682H78.6715ZM81.3901 31.8629C82.112 32.5852 82.5175 33.5646 82.5175 34.5858C82.5175 35.607 82.112 36.5865 81.3901 37.3087C80.6678 38.0305 79.6885 38.4359 78.6675 38.4359C77.6465 38.4359 76.6672 38.0305 75.9449 37.3087C75.2232 36.5865 74.8178 35.6072 74.8178 34.5862C74.8178 33.5651 75.2232 32.5859 75.9449 31.8636C76.6672 31.1419 77.6465 30.7365 78.6675 30.7365C79.6885 30.7365 80.6678 31.1419 81.3901 31.8636V31.8629Z" fill="#4C4C4D"/>
</g>
<defs>
<clipPath id="clip0_109_60">
<rect width="57.1666" height="28" fill="white" transform="translate(60.0596 20)"/>
</clipPath>
</defs>
</svg>
